<svg xmlns="http://www.w3.org/2000/svg" width="960" height="720" viewBox="0 0 960 720"><text x="480" y="25" fill="#000" dy=".76em" font-family="sans-serif" font-size="25.806" opacity="1" text-anchor="middle">bench_hmr_to_eval</text><polyline fill="none" stroke="#2196F3" stroke-width="1" points="100 659 101 659 103 658 108 658 116 657 133 658 150 657 166 656 183 643 267 658 435 657 603 657 771 652 939 655" opacity="1"/><circle cx="100" cy="659" r="2" fill="#2196F3" stroke="none" stroke-width="1" opacity="1"/><circle cx="101" cy="659" r="2" fill="#2196F3" stroke="none" stroke-width="1" opacity="1"/><circle cx="103" cy="658" r="2" fill="#2196F3" stroke="none" stroke-width="1" opacity="1"/><circle cx="108" cy="658" r="2" fill="#2196F3" stroke="none" stroke-width="1" opacity="1"/><circle cx="116" cy="657" r="2" fill="#2196F3" stroke="none" stroke-width="1" opacity="1"/><circle cx="133" cy="658" r="2" fill="#2196F3" stroke="none" stroke-width="1" opacity="1"/><circle cx="150" cy="657" r="2" fill="#2196F3" stroke="none" stroke-width="1" opacity="1"/><circle cx="166" cy="656" r="2" fill="#2196F3" stroke="none" stroke-width="1" opacity="1"/><circle cx="183" cy="643" r="2" fill="#2196F3" stroke="none" stroke-width="1" opacity="1"/><circle cx="267" cy="658" r="2" fill="#2196F3" stroke="none" stroke-width="1" opacity="1"/><circle cx="435" cy="657" r="2" fill="#2196F3" stroke="none" stroke-width="1" opacity="1"/><circle cx="603" cy="657" r="2" fill="#2196F3" stroke="none" stroke-width="1" opacity="1"/><circle cx="771" cy="652" r="2" fill="#2196F3" stroke="none" stroke-width="1" opacity="1"/><circle cx="939" cy="655" r="2" fill="#2196F3" stroke="none" stroke-width="1" opacity="1"/><polyline fill="none" stroke="#00BCD4" stroke-width="1" points="100 560 101 551 103 552 108 554 116 570 133 540 150 548 166 555 183 563 267 541 435 427 603 364 939 55" opacity="1"/><circle cx="100" cy="560" r="2" fill="#00BCD4" stroke="none" stroke-width="1" opacity="1"/><circle cx="101" cy="551" r="2" fill="#00BCD4" stroke="none" stroke-width="1" opacity="1"/><circle cx="103" cy="552" r="2" fill="#00BCD4" stroke="none" stroke-width="1" opacity="1"/><circle cx="108" cy="554" r="2" fill="#00BCD4" stroke="none" stroke-width="1" opacity="1"/><circle cx="116" cy="570" r="2" fill="#00BCD4" stroke="none" stroke-width="1" opacity="1"/><circle cx="133" cy="540" r="2" fill="#00BCD4" stroke="none" stroke-width="1" opacity="1"/><circle cx="150" cy="548" r="2" fill="#00BCD4" stroke="none" stroke-width="1" opacity="1"/><circle cx="166" cy="555" r="2" fill="#00BCD4" stroke="none" stroke-width="1" opacity="1"/><circle cx="183" cy="563" r="2" fill="#00BCD4" stroke="none" stroke-width="1" opacity="1"/><circle cx="267" cy="541" r="2" fill="#00BCD4" stroke="none" stroke-width="1" opacity="1"/><circle cx="435" cy="427" r="2" fill="#00BCD4" stroke="none" stroke-width="1" opacity="1"/><circle cx="603" cy="364" r="2" fill="#00BCD4" stroke="none" stroke-width="1" opacity="1"/><circle cx="939" cy="55" r="2" fill="#00BCD4" stroke="none" stroke-width="1" opacity="1"/><line x1="116" x2="116" y1="659" y2="55" stroke="#000" stroke-width="1" opacity=".1"/><line x1="133" x2="133" y1="659" y2="55" stroke="#000" stroke-width="1" opacity=".1"/><line x1="150" x2="150" y1="659" y2="55" stroke="#000" stroke-width="1" opacity=".1"/><line x1="166" x2="166" y1="659" y2="55" stroke="#000" stroke-width="1" opacity=".1"/><line x1="183" x2="183" y1="659" y2="55" stroke="#000" stroke-width="1" opacity=".1"/><line x1="200" x2="200" y1="659" y2="55" stroke="#000" stroke-width="1" opacity=".1"/><line x1="217" x2="217" y1="659" y2="55" stroke="#000" stroke-width="1" opacity=".1"/><line x1="234" x2="234" y1="659" y2="55" stroke="#000" stroke-width="1" opacity=".1"/><line x1="250" x2="250" y1="659" y2="55" stroke="#000" stroke-width="1" opacity=".1"/><line x1="267" x2="267" y1="659" y2="55" stroke="#000" stroke-width="1" opacity=".1"/><line x1="284" x2="284" y1="659" y2="55" stroke="#000" stroke-width="1" opacity=".1"/><line x1="301" x2="301" y1="659" y2="55" stroke="#000" stroke-width="1" opacity=".1"/><line x1="318" x2="318" y1="659" y2="55" stroke="#000" stroke-width="1" opacity=".1"/><line x1="334" x2="334" y1="659" y2="55" stroke="#000" stroke-width="1" opacity=".1"/><line x1="351" x2="351" y1="659" y2="55" stroke="#000" stroke-width="1" opacity=".1"/><line x1="368" x2="368" y1="659" y2="55" stroke="#000" stroke-width="1" opacity=".1"/><line x1="385" x2="385" y1="659" y2="55" stroke="#000" stroke-width="1" opacity=".1"/><line x1="401" x2="401" y1="659" y2="55" stroke="#000" stroke-width="1" opacity=".1"/><line x1="418" x2="418" y1="659" y2="55" stroke="#000" stroke-width="1" opacity=".1"/><line x1="435" x2="435" y1="659" y2="55" stroke="#000" stroke-width="1" opacity=".1"/><line x1="452" x2="452" y1="659" y2="55" stroke="#000" stroke-width="1" opacity=".1"/><line x1="469" x2="469" y1="659" y2="55" stroke="#000" stroke-width="1" opacity=".1"/><line x1="485" x2="485" y1="659" y2="55" stroke="#000" stroke-width="1" opacity=".1"/><line x1="502" x2="502" y1="659" y2="55" stroke="#000" stroke-width="1" opacity=".1"/><line x1="519" x2="519" y1="659" y2="55" stroke="#000" stroke-width="1" opacity=".1"/><line x1="536" x2="536" y1="659" y2="55" stroke="#000" stroke-width="1" opacity=".1"/><line x1="552" x2="552" y1="659" y2="55" stroke="#000" stroke-width="1" opacity=".1"/><line x1="569" x2="569" y1="659" y2="55" stroke="#000" stroke-width="1" opacity=".1"/><line x1="586" x2="586" y1="659" y2="55" stroke="#000" stroke-width="1" opacity=".1"/><line x1="603" x2="603" y1="659" y2="55" stroke="#000" stroke-width="1" opacity=".1"/><line x1="620" x2="620" y1="659" y2="55" stroke="#000" stroke-width="1" opacity=".1"/><line x1="636" x2="636" y1="659" y2="55" stroke="#000" stroke-width="1" opacity=".1"/><line x1="653" x2="653" y1="659" y2="55" stroke="#000" stroke-width="1" opacity=".1"/><line x1="670" x2="670" y1="659" y2="55" stroke="#000" stroke-width="1" opacity=".1"/><line x1="687" x2="687" y1="659" y2="55" stroke="#000" stroke-width="1" opacity=".1"/><line x1="704" x2="704" y1="659" y2="55" stroke="#000" stroke-width="1" opacity=".1"/><line x1="720" x2="720" y1="659" y2="55" stroke="#000" stroke-width="1" opacity=".1"/><line x1="737" x2="737" y1="659" y2="55" stroke="#000" stroke-width="1" opacity=".1"/><line x1="754" x2="754" y1="659" y2="55" stroke="#000" stroke-width="1" opacity=".1"/><line x1="771" x2="771" y1="659" y2="55" stroke="#000" stroke-width="1" opacity=".1"/><line x1="787" x2="787" y1="659" y2="55" stroke="#000" stroke-width="1" opacity=".1"/><line x1="804" x2="804" y1="659" y2="55" stroke="#000" stroke-width="1" opacity=".1"/><line x1="821" x2="821" y1="659" y2="55" stroke="#000" stroke-width="1" opacity=".1"/><line x1="838" x2="838" y1="659" y2="55" stroke="#000" stroke-width="1" opacity=".1"/><line x1="855" x2="855" y1="659" y2="55" stroke="#000" stroke-width="1" opacity=".1"/><line x1="871" x2="871" y1="659" y2="55" stroke="#000" stroke-width="1" opacity=".1"/><line x1="888" x2="888" y1="659" y2="55" stroke="#000" stroke-width="1" opacity=".1"/><line x1="905" x2="905" y1="659" y2="55" stroke="#000" stroke-width="1" opacity=".1"/><line x1="922" x2="922" y1="659" y2="55" stroke="#000" stroke-width="1" opacity=".1"/><line x1="939" x2="939" y1="659" y2="55" stroke="#000" stroke-width="1" opacity=".1"/><line x1="100" x2="939" y1="657" y2="657" stroke="#000" stroke-width="1" opacity=".1"/><line x1="100" x2="939" y1="651" y2="651" stroke="#000" stroke-width="1" opacity=".1"/><line x1="100" x2="939" y1="645" y2="645" stroke="#000" stroke-width="1" opacity=".1"/><line x1="100" x2="939" y1="639" y2="639" stroke="#000" stroke-width="1" opacity=".1"/><line x1="100" x2="939" y1="633" y2="633" stroke="#000" stroke-width="1" opacity=".1"/><line x1="100" x2="939" y1="627" y2="627" stroke="#000" stroke-width="1" opacity=".1"/><line x1="100" x2="939" y1="621" y2="621" stroke="#000" stroke-width="1" opacity=".1"/><line x1="100" x2="939" y1="615" y2="615" stroke="#000" stroke-width="1" opacity=".1"/><line x1="100" x2="939" y1="609" y2="609" stroke="#000" stroke-width="1" opacity=".1"/><line x1="100" x2="939" y1="603" y2="603" stroke="#000" stroke-width="1" opacity=".1"/><line x1="100" x2="939" y1="597" y2="597" stroke="#000" stroke-width="1" opacity=".1"/><line x1="100" x2="939" y1="591" y2="591" stroke="#000" stroke-width="1" opacity=".1"/><line x1="100" x2="939" y1="584" y2="584" stroke="#000" stroke-width="1" opacity=".1"/><line x1="100" x2="939" y1="578" y2="578" stroke="#000" stroke-width="1" opacity=".1"/><line x1="100" x2="939" y1="572" y2="572" stroke="#000" stroke-width="1" opacity=".1"/><line x1="100" x2="939" y1="566" y2="566" stroke="#000" stroke-width="1" opacity=".1"/><line x1="100" x2="939" y1="560" y2="560" stroke="#000" stroke-width="1" opacity=".1"/><line x1="100" x2="939" y1="554" y2="554" stroke="#000" stroke-width="1" opacity=".1"/><line x1="100" x2="939" y1="548" y2="548" stroke="#000" stroke-width="1" opacity=".1"/><line x1="100" x2="939" y1="542" y2="542" stroke="#000" stroke-width="1" opacity=".1"/><line x1="100" x2="939" y1="536" y2="536" stroke="#000" stroke-width="1" opacity=".1"/><line x1="100" x2="939" y1="530" y2="530" stroke="#000" stroke-width="1" opacity=".1"/><line x1="100" x2="939" y1="524" y2="524" stroke="#000" stroke-width="1" opacity=".1"/><line x1="100" x2="939" y1="518" y2="518" stroke="#000" stroke-width="1" opacity=".1"/><line x1="100" x2="939" y1="511" y2="511" stroke="#000" stroke-width="1" opacity=".1"/><line x1="100" x2="939" y1="505" y2="505" stroke="#000" stroke-width="1" opacity=".1"/><line x1="100" x2="939" y1="499" y2="499" stroke="#000" stroke-width="1" opacity=".1"/><line x1="100" x2="939" y1="493" y2="493" stroke="#000" stroke-width="1" opacity=".1"/><line x1="100" x2="939" y1="487" y2="487" stroke="#000" stroke-width="1" opacity=".1"/><line x1="100" x2="939" y1="481" y2="481" stroke="#000" stroke-width="1" opacity=".1"/><line x1="100" x2="939" y1="475" y2="475" stroke="#000" stroke-width="1" opacity=".1"/><line x1="100" x2="939" y1="469" y2="469" stroke="#000" stroke-width="1" opacity=".1"/><line x1="100" x2="939" y1="463" y2="463" stroke="#000" stroke-width="1" opacity=".1"/><line x1="100" x2="939" y1="457" y2="457" stroke="#000" stroke-width="1" opacity=".1"/><line x1="100" x2="939" y1="451" y2="451" stroke="#000" stroke-width="1" opacity=".1"/><line x1="100" x2="939" y1="445" y2="445" stroke="#000" stroke-width="1" opacity=".1"/><line x1="100" x2="939" y1="438" y2="438" stroke="#000" stroke-width="1" opacity=".1"/><line x1="100" x2="939" y1="432" y2="432" stroke="#000" stroke-width="1" opacity=".1"/><line x1="100" x2="939" y1="426" y2="426" stroke="#000" stroke-width="1" opacity=".1"/><line x1="100" x2="939" y1="420" y2="420" stroke="#000" stroke-width="1" opacity=".1"/><line x1="100" x2="939" y1="414" y2="414" stroke="#000" stroke-width="1" opacity=".1"/><line x1="100" x2="939" y1="408" y2="408" stroke="#000" stroke-width="1" opacity=".1"/><line x1="100" x2="939" y1="402" y2="402" stroke="#000" stroke-width="1" opacity=".1"/><line x1="100" x2="939" y1="396" y2="396" stroke="#000" stroke-width="1" opacity=".1"/><line x1="100" x2="939" y1="390" y2="390" stroke="#000" stroke-width="1" opacity=".1"/><line x1="100" x2="939" y1="384" y2="384" stroke="#000" stroke-width="1" opacity=".1"/><line x1="100" x2="939" y1="378" y2="378" stroke="#000" stroke-width="1" opacity=".1"/><line x1="100" x2="939" y1="372" y2="372" stroke="#000" stroke-width="1" opacity=".1"/><line x1="100" x2="939" y1="365" y2="365" stroke="#000" stroke-width="1" opacity=".1"/><line x1="100" x2="939" y1="359" y2="359" stroke="#000" stroke-width="1" opacity=".1"/><line x1="100" x2="939" y1="353" y2="353" stroke="#000" stroke-width="1" opacity=".1"/><line x1="100" x2="939" y1="347" y2="347" stroke="#000" stroke-width="1" opacity=".1"/><line x1="100" x2="939" y1="341" y2="341" stroke="#000" stroke-width="1" opacity=".1"/><line x1="100" x2="939" y1="335" y2="335" stroke="#000" stroke-width="1" opacity=".1"/><line x1="100" x2="939" y1="329" y2="329" stroke="#000" stroke-width="1" opacity=".1"/><line x1="100" x2="939" y1="323" y2="323" stroke="#000" stroke-width="1" opacity=".1"/><line x1="100" x2="939" y1="317" y2="317" stroke="#000" stroke-width="1" opacity=".1"/><line x1="100" x2="939" y1="311" y2="311" stroke="#000" stroke-width="1" opacity=".1"/><line x1="100" x2="939" y1="305" y2="305" stroke="#000" stroke-width="1" opacity=".1"/><line x1="100" x2="939" y1="299" y2="299" stroke="#000" stroke-width="1" opacity=".1"/><line x1="100" x2="939" y1="292" y2="292" stroke="#000" stroke-width="1" opacity=".1"/><line x1="100" x2="939" y1="286" y2="286" stroke="#000" stroke-width="1" opacity=".1"/><line x1="100" x2="939" y1="280" y2="280" stroke="#000" stroke-width="1" opacity=".1"/><line x1="100" x2="939" y1="274" y2="274" stroke="#000" stroke-width="1" opacity=".1"/><line x1="100" x2="939" y1="268" y2="268" stroke="#000" stroke-width="1" opacity=".1"/><line x1="100" x2="939" y1="262" y2="262" stroke="#000" stroke-width="1" opacity=".1"/><line x1="100" x2="939" y1="256" y2="256" stroke="#000" stroke-width="1" opacity=".1"/><line x1="100" x2="939" y1="250" y2="250" stroke="#000" stroke-width="1" opacity=".1"/><line x1="100" x2="939" y1="244" y2="244" stroke="#000" stroke-width="1" opacity=".1"/><line x1="100" x2="939" y1="238" y2="238" stroke="#000" stroke-width="1" opacity=".1"/><line x1="100" x2="939" y1="232" y2="232" stroke="#000" stroke-width="1" opacity=".1"/><line x1="100" x2="939" y1="226" y2="226" stroke="#000" stroke-width="1" opacity=".1"/><line x1="100" x2="939" y1="219" y2="219" stroke="#000" stroke-width="1" opacity=".1"/><line x1="100" x2="939" y1="213" y2="213" stroke="#000" stroke-width="1" opacity=".1"/><line x1="100" x2="939" y1="207" y2="207" stroke="#000" stroke-width="1" opacity=".1"/><line x1="100" x2="939" y1="201" y2="201" stroke="#000" stroke-width="1" opacity=".1"/><line x1="100" x2="939" y1="195" y2="195" stroke="#000" stroke-width="1" opacity=".1"/><line x1="100" x2="939" y1="189" y2="189" stroke="#000" stroke-width="1" opacity=".1"/><line x1="100" x2="939" y1="183" y2="183" stroke="#000" stroke-width="1" opacity=".1"/><line x1="100" x2="939" y1="177" y2="177" stroke="#000" stroke-width="1" opacity=".1"/><line x1="100" x2="939" y1="171" y2="171" stroke="#000" stroke-width="1" opacity=".1"/><line x1="100" x2="939" y1="165" y2="165" stroke="#000" stroke-width="1" opacity=".1"/><line x1="100" x2="939" y1="159" y2="159" stroke="#000" stroke-width="1" opacity=".1"/><line x1="100" x2="939" y1="153" y2="153" stroke="#000" stroke-width="1" opacity=".1"/><line x1="100" x2="939" y1="147" y2="147" stroke="#000" stroke-width="1" opacity=".1"/><line x1="100" x2="939" y1="140" y2="140" stroke="#000" stroke-width="1" opacity=".1"/><line x1="100" x2="939" y1="134" y2="134" stroke="#000" stroke-width="1" opacity=".1"/><line x1="100" x2="939" y1="128" y2="128" stroke="#000" stroke-width="1" opacity=".1"/><line x1="100" x2="939" y1="122" y2="122" stroke="#000" stroke-width="1" opacity=".1"/><line x1="100" x2="939" y1="116" y2="116" stroke="#000" stroke-width="1" opacity=".1"/><line x1="100" x2="939" y1="110" y2="110" stroke="#000" stroke-width="1" opacity=".1"/><line x1="100" x2="939" y1="104" y2="104" stroke="#000" stroke-width="1" opacity=".1"/><line x1="100" x2="939" y1="98" y2="98" stroke="#000" stroke-width="1" opacity=".1"/><line x1="100" x2="939" y1="92" y2="92" stroke="#000" stroke-width="1" opacity=".1"/><line x1="100" x2="939" y1="86" y2="86" stroke="#000" stroke-width="1" opacity=".1"/><line x1="100" x2="939" y1="80" y2="80" stroke="#000" stroke-width="1" opacity=".1"/><line x1="100" x2="939" y1="74" y2="74" stroke="#000" stroke-width="1" opacity=".1"/><line x1="100" x2="939" y1="67" y2="67" stroke="#000" stroke-width="1" opacity=".1"/><line x1="100" x2="939" y1="61" y2="61" stroke="#000" stroke-width="1" opacity=".1"/><text x="20" y="357" fill="#000" dy=".76em" font-family="sans-serif" font-size="9.677" opacity="1" text-anchor="middle" transform="rotate(270, 20, 357)">Mean time (ms) -- lower is better</text><text x="520" y="700" fill="#000" dy="-.5ex" font-family="sans-serif" font-size="9.677" opacity="1" text-anchor="middle">Number of modules</text><line x1="267" x2="267" y1="659" y2="55" stroke="#000" stroke-width="1" opacity=".2"/><line x1="435" x2="435" y1="659" y2="55" stroke="#000" stroke-width="1" opacity=".2"/><line x1="603" x2="603" y1="659" y2="55" stroke="#000" stroke-width="1" opacity=".2"/><line x1="771" x2="771" y1="659" y2="55" stroke="#000" stroke-width="1" opacity=".2"/><line x1="939" x2="939" y1="659" y2="55" stroke="#000" stroke-width="1" opacity=".2"/><line x1="100" x2="939" y1="615" y2="615" stroke="#000" stroke-width="1" opacity=".2"/><line x1="100" x2="939" y1="554" y2="554" stroke="#000" stroke-width="1" opacity=".2"/><line x1="100" x2="939" y1="493" y2="493" stroke="#000" stroke-width="1" opacity=".2"/><line x1="100" x2="939" y1="432" y2="432" stroke="#000" stroke-width="1" opacity=".2"/><line x1="100" x2="939" y1="372" y2="372" stroke="#000" stroke-width="1" opacity=".2"/><line x1="100" x2="939" y1="311" y2="311" stroke="#000" stroke-width="1" opacity=".2"/><line x1="100" x2="939" y1="250" y2="250" stroke="#000" stroke-width="1" opacity=".2"/><line x1="100" x2="939" y1="189" y2="189" stroke="#000" stroke-width="1" opacity=".2"/><line x1="100" x2="939" y1="128" y2="128" stroke="#000" stroke-width="1" opacity=".2"/><line x1="100" x2="939" y1="67" y2="67" stroke="#000" stroke-width="1" opacity=".2"/><polyline fill="none" stroke="#000" stroke-width="1" points="99 55 99 659" opacity="1"/><text x="90" y="615" fill="#000" dy=".5ex" font-family="sans-serif" font-size="9.677" opacity="1" text-anchor="end">50.0</text><polyline fill="none" stroke="#000" stroke-width="1" points="94 615 99 615" opacity="1"/><text x="90" y="554" fill="#000" dy=".5ex" font-family="sans-serif" font-size="9.677" opacity="1" text-anchor="end">100.0</text><polyline fill="none" stroke="#000" stroke-width="1" points="94 554 99 554" opacity="1"/><text x="90" y="493" fill="#000" dy=".5ex" font-family="sans-serif" font-size="9.677" opacity="1" text-anchor="end">150.0</text><polyline fill="none" stroke="#000" stroke-width="1" points="94 493 99 493" opacity="1"/><text x="90" y="432" fill="#000" dy=".5ex" font-family="sans-serif" font-size="9.677" opacity="1" text-anchor="end">200.0</text><polyline fill="none" stroke="#000" stroke-width="1" points="94 432 99 432" opacity="1"/><text x="90" y="372" fill="#000" dy=".5ex" font-family="sans-serif" font-size="9.677" opacity="1" text-anchor="end">250.0</text><polyline fill="none" stroke="#000" stroke-width="1" points="94 372 99 372" opacity="1"/><text x="90" y="311" fill="#000" dy=".5ex" font-family="sans-serif" font-size="9.677" opacity="1" text-anchor="end">300.0</text><polyline fill="none" stroke="#000" stroke-width="1" points="94 311 99 311" opacity="1"/><text x="90" y="250" fill="#000" dy=".5ex" font-family="sans-serif" font-size="9.677" opacity="1" text-anchor="end">350.0</text><polyline fill="none" stroke="#000" stroke-width="1" points="94 250 99 250" opacity="1"/><text x="90" y="189" fill="#000" dy=".5ex" font-family="sans-serif" font-size="9.677" opacity="1" text-anchor="end">400.0</text><polyline fill="none" stroke="#000" stroke-width="1" points="94 189 99 189" opacity="1"/><text x="90" y="128" fill="#000" dy=".5ex" font-family="sans-serif" font-size="9.677" opacity="1" text-anchor="end">450.0</text><polyline fill="none" stroke="#000" stroke-width="1" points="94 128 99 128" opacity="1"/><text x="90" y="67" fill="#000" dy=".5ex" font-family="sans-serif" font-size="9.677" opacity="1" text-anchor="end">500.0</text><polyline fill="none" stroke="#000" stroke-width="1" points="94 67 99 67" opacity="1"/><polyline fill="none" stroke="#000" stroke-width="1" points="100 660 939 660" opacity="1"/><text x="267" y="670" fill="#000" dy=".76em" font-family="sans-serif" font-size="9.677" opacity="1" text-anchor="middle">10000</text><polyline fill="none" stroke="#000" stroke-width="1" points="267 660 267 665" opacity="1"/><text x="435" y="670" fill="#000" dy=".76em" font-family="sans-serif" font-size="9.677" opacity="1" text-anchor="middle">20000</text><polyline fill="none" stroke="#000" stroke-width="1" points="435 660 435 665" opacity="1"/><text x="603" y="670" fill="#000" dy=".76em" font-family="sans-serif" font-size="9.677" opacity="1" text-anchor="middle">30000</text><polyline fill="none" stroke="#000" stroke-width="1" points="603 660 603 665" opacity="1"/><text x="771" y="670" fill="#000" dy=".76em" font-family="sans-serif" font-size="9.677" opacity="1" text-anchor="middle">40000</text><polyline fill="none" stroke="#000" stroke-width="1" points="771 660 771 665" opacity="1"/><text x="939" y="670" fill="#000" dy=".76em" font-family="sans-serif" font-size="9.677" opacity="1" text-anchor="middle">50000</text><polyline fill="none" stroke="#000" stroke-width="1" points="939 660 939 665" opacity="1"/><rect width="117" height="44" x="105" y="60" fill="#FFF" stroke="none" opacity="1"/><rect width="117" height="44" x="105" y="60" fill="none" stroke="#000" opacity="1"/><text x="145" y="70" fill="#000" dy=".76em" font-family="sans-serif" font-size="9.677" opacity="1" text-anchor="start">Turbopack SSR</text><text x="145" y="85" fill="#000" dy=".76em" font-family="sans-serif" font-size="9.677" opacity="1" text-anchor="start">Vite CSR</text><polyline fill="none" stroke="#2196F3" stroke-width="1" points="115 74 135 74" opacity="1"/><polyline fill="none" stroke="#00BCD4" stroke-width="1" points="115 89 135 89" opacity="1"/></svg>