<svg xmlns="http://www.w3.org/2000/svg" width="1440" height="320" fill="none" viewBox="0 0 1440 320"><g style="mix-blend-mode:overlay" opacity=".5"><mask id="mask0_214_3646" style="mask-type:alpha" width="1439" height="320" x="0" y="0" maskUnits="userSpaceOnUse"><rect width="1439" height="320" fill="url(#paint0_linear_214_3646)"/></mask><g mask="url(#mask0_214_3646)"><line x2="1440" y1="193.5" y2="193.5" stroke="#fff"/><line x2="1440" y1="140.5" y2="140.5" stroke="#fff"/><line x2="1440" y1="93.5" y2="93.5" stroke="#fff"/><line x2="1440" y1="56.5" y2="56.5" stroke="#fff"/><line x2="1440" y1="31.5" y2="31.5" stroke="#fff"/><line x2="1440" y1="14.5" y2="14.5" stroke="#fff"/><line x2="1440" y1="5.5" y2="5.5" stroke="#fff"/><line x2="1440" y1=".5" y2=".5" stroke="#fff"/><line x2="1440" y1="254.5" y2="254.5" stroke="#fff"/><line x1="720.498" x2="774.498" y1="-341.041" y2="319.959" stroke="#fff"/><line x1="720.485" x2="884.485" y1="-341.12" y2="319.88" stroke="#fff"/><line x1="720.459" x2="1005.46" y1="-341.198" y2="319.802" stroke="#fff"/><line x2="789.302" y1="-.5" y2="-.5" stroke="#fff" transform="matrix(0.546516 0.837449 -0.893077 0.449904 720 -341)"/><line x2="909.596" y1="-.5" y2="-.5" stroke="#fff" transform="matrix(0.686959 0.726696 -0.80779 0.589471 720 -341)"/><line x1="720.31" x2="1440.31" y1="-341.392" y2="228.608" stroke="#fff"/><line x1="720.262" x2="1440.26" y1="-341.426" y2="101.574" stroke="#fff"/><line x1="720.225" x2="1440.22" y1="-341.447" y2="20.553" stroke="#fff"/><line x1="720.498" x2="666.498" y1="-340.959" y2="320.041" stroke="#fff"/><line x1="720.485" x2="556.485" y1="-340.88" y2="320.12" stroke="#fff"/><line x1="720.459" x2="435.459" y1="-340.802" y2="320.198" stroke="#fff"/><line x2="789.302" y1="-.5" y2="-.5" stroke="#fff" transform="matrix(-0.546516 0.837449 0.893077 0.449904 720 -341)"/><line x2="909.596" y1="-.5" y2="-.5" stroke="#fff" transform="matrix(-0.686959 0.726696 0.80779 0.589471 720 -341)"/><line x1="720.31" x2=".31" y1="-340.608" y2="229.392" stroke="#fff"/><line x1="720.262" x2=".262" y1="-340.574" y2="102.426" stroke="#fff"/><line x2="805.881" y1="-.5" y2="-.5" stroke="#fff" transform="matrix(-0.893432 0.449198 0.449198 0.893432 720 -341)"/></g></g><defs><linearGradient id="paint0_linear_214_3646" x1="719.5" x2="719.5" y1="0" y2="320" gradientUnits="userSpaceOnUse"><stop stop-opacity="0"/><stop offset=".203"/></linearGradient></defs></svg>