<svg xmlns="http://www.w3.org/2000/svg" width="1440" height="830" fill="none" viewBox="0 0 1440 830"><g clip-path="url(#clip0_214_3618)" opacity=".25"><g filter="url(#filter0_f_214_3618)"><ellipse cx="110" cy="713" fill="url(#paint0_linear_214_3618)" rx="491" ry="211"/></g><g filter="url(#filter1_f_214_3618)"><ellipse cx="-22" cy="566" fill="url(#paint1_linear_214_3618)" rx="148" ry="450"/></g></g><g clip-path="url(#clip1_214_3618)" opacity=".25"><g filter="url(#filter2_f_214_3618)"><ellipse fill="url(#paint2_linear_214_3618)" rx="491" ry="211" transform="matrix(-1 -8.74228e-08 -8.74228e-08 1 1330 713)"/></g><g filter="url(#filter3_f_214_3618)"><ellipse fill="url(#paint3_linear_214_3618)" rx="148" ry="450" transform="matrix(-1 -8.74228e-08 -8.74228e-08 1 1462 566)"/></g></g><g style="mix-blend-mode:overlay"><line x2="911.35" y1="-1" y2="-1" stroke="url(#paint4_linear_214_3618)" stroke-width="2" transform="matrix(0.54548 0.835827 -0.901598 0.436792 713.866 159.635)"/></g><g style="mix-blend-mode:overlay"><line x2="911.35" y1="-1" y2="-1" stroke="url(#paint5_linear_214_3618)" stroke-width="2" transform="matrix(0.54548 0.835827 -0.901598 0.436792 713.866 159.635)"/></g><g opacity=".5"><g style="mix-blend-mode:overlay"><line x2="908.272" y1="-1" y2="-1" stroke="url(#paint6_linear_214_3618)" stroke-width="2" transform="matrix(0.779416 0.628831 -0.720864 0.691066 765.719 198.078)"/></g><g style="mix-blend-mode:overlay"><line x2="908.272" y1="-1" y2="-1" stroke="url(#paint7_linear_214_3618)" stroke-width="2" transform="matrix(0.779416 0.628831 -0.720864 0.691066 765.719 198.078)"/></g></g><g style="mix-blend-mode:overlay"><line x2="909.596" y1="-1" y2="-1" stroke="url(#paint8_linear_214_3618)" stroke-width="2" transform="matrix(-0.686959 0.726696 0.80779 0.589471 720.855 169)"/></g><g style="mix-blend-mode:overlay"><line x2="909.596" y1="-1" y2="-1" stroke="url(#paint9_linear_214_3618)" stroke-width="2" transform="matrix(-0.686959 0.726696 0.80779 0.589471 720.855 169)"/></g><g opacity=".25"><g style="mix-blend-mode:overlay"><line x2="907.136" y1="-1" y2="-1" stroke="url(#paint10_linear_214_3618)" stroke-width="2" transform="matrix(-0.852473 0.527939 0.629714 0.773488 708.31 176.04)"/></g><g style="mix-blend-mode:overlay"><line x2="907.136" y1="-1" y2="-1" stroke="url(#paint11_linear_214_3618)" stroke-width="2" transform="matrix(-0.852473 0.527939 0.629714 0.773488 708.31 176.04)"/></g></g><g opacity=".5"><g style="mix-blend-mode:overlay"><line x2="912.856" y1="-1" y2="-1" stroke="url(#paint12_linear_214_3618)" stroke-width="2" transform="matrix(-0.391185 0.91643 0.965555 0.27294 785.642 13.9999)"/></g><g style="mix-blend-mode:overlay"><line x2="912.856" y1="-1" y2="-1" stroke="url(#paint13_linear_214_3618)" stroke-width="2" transform="matrix(-0.391185 0.91643 0.965555 0.27294 785.642 13.9999)"/></g></g><g style="mix-blend-mode:overlay" filter="url(#filter4_f_214_3618)" opacity=".75"><ellipse cx="210" cy="828.5" fill="url(#paint14_linear_214_3618)" rx="410" ry="127.5"/></g><g style="mix-blend-mode:overlay" filter="url(#filter5_f_214_3618)" opacity=".75"><ellipse cx="1230" cy="828.5" fill="url(#paint15_linear_214_3618)" rx="410" ry="127.5"/></g><g style="mix-blend-mode:overlay" opacity=".5"><mask id="mask0_214_3618" style="mask-type:alpha" width="1439" height="320" x="0" y="510" maskUnits="userSpaceOnUse"><rect width="1439" height="320" y="510" fill="url(#paint16_linear_214_3618)"/></mask><g mask="url(#mask0_214_3618)"><line x2="1440" y1="703.5" y2="703.5" stroke="#fff"/><line x2="1440" y1="650.5" y2="650.5" stroke="#fff"/><line x2="1440" y1="603.5" y2="603.5" stroke="#fff"/><line x2="1440" y1="566.5" y2="566.5" stroke="#fff"/><line x2="1440" y1="541.5" y2="541.5" stroke="#fff"/><line x2="1440" y1="524.5" y2="524.5" stroke="#fff"/><line x2="1440" y1="515.5" y2="515.5" stroke="#fff"/><line x2="1440" y1="510.5" y2="510.5" stroke="#fff"/><line x2="1440" y1="764.5" y2="764.5" stroke="#fff"/><line x1="720.498" x2="774.498" y1="168.959" y2="829.959" stroke="#fff"/><line x1="720.485" x2="884.485" y1="168.88" y2="829.88" stroke="#fff"/><line x1="720.459" x2="1005.46" y1="168.802" y2="829.802" stroke="#fff"/><line x2="789.302" y1="-.5" y2="-.5" stroke="#fff" transform="matrix(0.546516 0.837449 -0.893077 0.449904 720 169)"/><line x2="909.596" y1="-.5" y2="-.5" stroke="#fff" transform="matrix(0.686959 0.726696 -0.80779 0.589471 720 169)"/><line x1="720.31" x2="1440.31" y1="168.608" y2="738.608" stroke="#fff"/><line x1="720.262" x2="1440.26" y1="168.574" y2="611.574" stroke="#fff"/><line x1="720.225" x2="1440.22" y1="168.553" y2="530.553" stroke="#fff"/><line x1="720.498" x2="666.498" y1="169.041" y2="830.041" stroke="#fff"/><line x1="720.485" x2="556.485" y1="169.12" y2="830.12" stroke="#fff"/><line x1="720.459" x2="435.459" y1="169.198" y2="830.198" stroke="#fff"/><line x2="789.302" y1="-.5" y2="-.5" stroke="#fff" transform="matrix(-0.546516 0.837449 0.893077 0.449904 720 169)"/><line x2="909.596" y1="-.5" y2="-.5" stroke="#fff" transform="matrix(-0.686959 0.726696 0.80779 0.589471 720 169)"/><line x1="720.31" x2=".31" y1="169.392" y2="739.392" stroke="#fff"/><line x1="720.262" x2=".262" y1="169.426" y2="612.426" stroke="#fff"/><line x2="805.881" y1="-.5" y2="-.5" stroke="#fff" transform="matrix(-0.893432 0.449198 0.449198 0.893432 720 169)"/></g></g><defs><filter id="filter0_f_214_3618" width="1482" height="922" x="-631" y="252" color-interpolation-filters="sRGB" filterUnits="userSpaceOnUse"><feFlood flood-opacity="0" result="BackgroundImageFix"/><feBlend in="SourceGraphic" in2="BackgroundImageFix" mode="normal" result="shape"/><feGaussianBlur result="effect1_foregroundBlur_214_3618" stdDeviation="125"/></filter><filter id="filter1_f_214_3618" width="796" height="1400" x="-420" y="-134" color-interpolation-filters="sRGB" filterUnits="userSpaceOnUse"><feFlood flood-opacity="0" result="BackgroundImageFix"/><feBlend in="SourceGraphic" in2="BackgroundImageFix" mode="normal" result="shape"/><feGaussianBlur result="effect1_foregroundBlur_214_3618" stdDeviation="125"/></filter><filter id="filter2_f_214_3618" width="1482" height="922" x="589" y="252" color-interpolation-filters="sRGB" filterUnits="userSpaceOnUse"><feFlood flood-opacity="0" result="BackgroundImageFix"/><feBlend in="SourceGraphic" in2="BackgroundImageFix" mode="normal" result="shape"/><feGaussianBlur result="effect1_foregroundBlur_214_3618" stdDeviation="125"/></filter><filter id="filter3_f_214_3618" width="796" height="1400" x="1064" y="-134" color-interpolation-filters="sRGB" filterUnits="userSpaceOnUse"><feFlood flood-opacity="0" result="BackgroundImageFix"/><feBlend in="SourceGraphic" in2="BackgroundImageFix" mode="normal" result="shape"/><feGaussianBlur result="effect1_foregroundBlur_214_3618" stdDeviation="125"/></filter><filter id="filter4_f_214_3618" width="1120" height="555" x="-350" y="551" color-interpolation-filters="sRGB" filterUnits="userSpaceOnUse"><feFlood flood-opacity="0" result="BackgroundImageFix"/><feBlend in="SourceGraphic" in2="BackgroundImageFix" mode="normal" result="shape"/><feGaussianBlur result="effect1_foregroundBlur_214_3618" stdDeviation="75"/></filter><filter id="filter5_f_214_3618" width="1120" height="555" x="670" y="551" color-interpolation-filters="sRGB" filterUnits="userSpaceOnUse"><feFlood flood-opacity="0" result="BackgroundImageFix"/><feBlend in="SourceGraphic" in2="BackgroundImageFix" mode="normal" result="shape"/><feGaussianBlur result="effect1_foregroundBlur_214_3618" stdDeviation="75"/></filter><linearGradient id="paint0_linear_214_3618" x1="110" x2="110" y1="502" y2="924" gradientUnits="userSpaceOnUse"><stop stop-color="#77B8FF"/><stop offset="1" stop-color="#77B8FF" stop-opacity=".4"/></linearGradient><linearGradient id="paint1_linear_214_3618" x1="-22" x2="-22" y1="116" y2="1016" gradientUnits="userSpaceOnUse"><stop stop-color="#77B8FF"/><stop offset="1" stop-color="#77B8FF" stop-opacity=".4"/></linearGradient><linearGradient id="paint2_linear_214_3618" x1="491" x2="491" y1="0" y2="422" gradientUnits="userSpaceOnUse"><stop stop-color="#EC97CF"/><stop offset="1" stop-color="#EC97CF" stop-opacity=".4"/></linearGradient><linearGradient id="paint3_linear_214_3618" x1="148" x2="148" y1="0" y2="900" gradientUnits="userSpaceOnUse"><stop stop-color="#EC97CF"/><stop offset="1" stop-color="#EC97CF" stop-opacity=".4"/></linearGradient><linearGradient id="paint4_linear_214_3618" x1="565.867" x2="781.362" y1="-6.655" y2="-57.614" gradientUnits="userSpaceOnUse"><stop stop-color="#fff" stop-opacity="0"/><stop offset=".495" stop-color="#fff"/><stop offset="1" stop-color="#fff" stop-opacity="0"/></linearGradient><linearGradient id="paint5_linear_214_3618" x1="565.867" x2="781.362" y1="-6.655" y2="-57.614" gradientUnits="userSpaceOnUse"><stop stop-color="#fff" stop-opacity="0"/><stop offset=".495" stop-color="#fff"/><stop offset="1" stop-color="#fff" stop-opacity="0"/></linearGradient><linearGradient id="paint6_linear_214_3618" x1="563.956" x2="778.8" y1="-6.655" y2="-57.289" gradientUnits="userSpaceOnUse"><stop stop-color="#fff" stop-opacity="0"/><stop offset=".495" stop-color="#fff"/><stop offset="1" stop-color="#fff" stop-opacity="0"/></linearGradient><linearGradient id="paint7_linear_214_3618" x1="563.956" x2="778.8" y1="-6.655" y2="-57.289" gradientUnits="userSpaceOnUse"><stop stop-color="#fff" stop-opacity="0"/><stop offset=".495" stop-color="#fff"/><stop offset="1" stop-color="#fff" stop-opacity="0"/></linearGradient><linearGradient id="paint8_linear_214_3618" x1="564.778" x2="779.902" y1="-6.655" y2="-57.429" gradientUnits="userSpaceOnUse"><stop stop-color="#fff" stop-opacity="0"/><stop offset=".495" stop-color="#fff"/><stop offset="1" stop-color="#fff" stop-opacity="0"/></linearGradient><linearGradient id="paint9_linear_214_3618" x1="564.778" x2="779.902" y1="-6.655" y2="-57.429" gradientUnits="userSpaceOnUse"><stop stop-color="#fff" stop-opacity="0"/><stop offset=".495" stop-color="#fff"/><stop offset="1" stop-color="#fff" stop-opacity="0"/></linearGradient><linearGradient id="paint10_linear_214_3618" x1="563.251" x2="777.854" y1="-6.655" y2="-57.169" gradientUnits="userSpaceOnUse"><stop stop-color="#fff" stop-opacity="0"/><stop offset=".495" stop-color="#fff"/><stop offset="1" stop-color="#fff" stop-opacity="0"/></linearGradient><linearGradient id="paint11_linear_214_3618" x1="563.251" x2="777.854" y1="-6.655" y2="-57.169" gradientUnits="userSpaceOnUse"><stop stop-color="#fff" stop-opacity="0"/><stop offset=".495" stop-color="#fff"/><stop offset="1" stop-color="#fff" stop-opacity="0"/></linearGradient><linearGradient id="paint12_linear_214_3618" x1="566.803" x2="782.615" y1="-6.655" y2="-57.774" gradientUnits="userSpaceOnUse"><stop stop-color="#fff" stop-opacity="0"/><stop offset=".495" stop-color="#fff"/><stop offset="1" stop-color="#fff" stop-opacity="0"/></linearGradient><linearGradient id="paint13_linear_214_3618" x1="566.803" x2="782.615" y1="-6.655" y2="-57.774" gradientUnits="userSpaceOnUse"><stop stop-color="#fff" stop-opacity="0"/><stop offset=".495" stop-color="#fff"/><stop offset="1" stop-color="#fff" stop-opacity="0"/></linearGradient><linearGradient id="paint14_linear_214_3618" x1="210" x2="210" y1="701" y2="956" gradientUnits="userSpaceOnUse"><stop stop-color="#58A5FF"/><stop offset="1" stop-color="#A67AF4"/></linearGradient><linearGradient id="paint15_linear_214_3618" x1="1230" x2="1230" y1="701" y2="956" gradientUnits="userSpaceOnUse"><stop stop-color="#FF3358"/><stop offset="1" stop-color="#FF4FD8"/></linearGradient><linearGradient id="paint16_linear_214_3618" x1="719.5" x2="719.5" y1="510" y2="830" gradientUnits="userSpaceOnUse"><stop stop-opacity="0"/><stop offset=".203"/></linearGradient><clipPath id="clip0_214_3618"><rect width="720" height="830" fill="#fff"/></clipPath><clipPath id="clip1_214_3618"><rect width="720" height="830" fill="#fff" transform="matrix(-1 -8.74228e-08 -8.74228e-08 1 1440 6.10352e-05)"/></clipPath></defs></svg>